<svg width="52" height="9" viewBox="0 0 52 9" fill="none" xmlns="http://www.w3.org/2000/svg">
<path d="M6.27217 4.38501L4.47231 7.46756L2.67247 4.38501H6.27217ZM6.75434 4.1095H2.18835L4.47231 8.0128L6.75434 4.1095Z" fill="#263238"/>
<path d="M9.40141 0.551006L11.2012 3.63356H7.60155L9.40141 0.551006ZM9.40141 0L7.11743 3.90328H11.6854L9.40141 0Z" fill="#263238"/>
<path d="M0 0L1.91503 3.45247L4.00768 0.0866921L0 0Z" fill="#4CAF4F"/>
<path d="M4.47234 0.30249L6.48107 3.73569H2.45972L4.47234 0.30249Z" fill="#4CAF4F"/>
<path d="M6.9983 4.48523L9.00898 8.01285H4.89197L6.93582 4.48523H6.9983Z" fill="#4CAF4F"/>
<path d="M7.43359 4.27136L9.40132 7.74502L11.3964 4.27136H7.43359Z" fill="#4CAF4F"/>
<path d="M20.0428 0.557251V7.35599H18.8013L15.8434 3.0769H15.7936V7.35599H14.3562V0.557251H15.6177L18.5523 4.83302H18.6121V0.557251H20.0428Z" fill="#263238"/>
<path d="M23.5277 7.45558C23.0032 7.45558 22.5517 7.34935 22.1733 7.13689C21.797 6.92221 21.5071 6.61902 21.3035 6.22729C21.0999 5.83335 20.9981 5.36749 20.9981 4.8297C20.9981 4.30519 21.0999 3.84486 21.3035 3.44871C21.5071 3.05256 21.7937 2.74382 22.1633 2.52251C22.5351 2.3012 22.9711 2.19054 23.4713 2.19054C23.8077 2.19054 24.1208 2.24476 24.4107 2.35321C24.7029 2.45944 24.9574 2.61989 25.1743 2.83456C25.3934 3.04924 25.5638 3.31924 25.6855 3.64457C25.8072 3.96768 25.8681 4.34613 25.8681 4.7799V5.16831H21.5624V4.29191H24.5369C24.5369 4.0883 24.4926 3.90793 24.4041 3.7508C24.3156 3.59367 24.1927 3.47084 24.0356 3.38231C23.8807 3.29157 23.7003 3.2462 23.4945 3.2462C23.2798 3.2462 23.0895 3.296 22.9235 3.39559C22.7597 3.49297 22.6314 3.62465 22.5384 3.79063C22.4455 3.95441 22.3979 4.13699 22.3957 4.33838V5.17163C22.3957 5.42392 22.4422 5.64192 22.5351 5.82561C22.6303 6.0093 22.7642 6.15094 22.9368 6.25053C23.1094 6.35012 23.3141 6.39992 23.5509 6.39992C23.7081 6.39992 23.8519 6.37778 23.9825 6.33352C24.1131 6.28926 24.2248 6.22286 24.3178 6.13434C24.4107 6.04581 24.4815 5.93737 24.5302 5.80901L25.8382 5.89532C25.7718 6.20959 25.6357 6.48401 25.4299 6.71861C25.2263 6.95099 24.9629 7.13246 24.6398 7.26304C24.3189 7.3914 23.9482 7.45558 23.5277 7.45558Z" fill="#263238"/>
<path d="M27.8815 2.25694L28.8176 4.03961L29.777 2.25694H31.2277L29.7505 4.80646L31.2676 7.35599H29.8235L28.8176 5.59323L27.8284 7.35599H26.3677L27.8815 4.80646L26.4208 2.25694H27.8815Z" fill="#263238"/>
<path d="M34.1889 7.45558C33.6666 7.45558 33.2173 7.34492 32.8411 7.12361C32.4671 6.90008 32.1794 6.59024 31.978 6.19409C31.7788 5.79794 31.6792 5.34204 31.6792 4.82638C31.6792 4.30408 31.7799 3.84596 31.9813 3.45203C32.1849 3.05588 32.4737 2.74714 32.8477 2.52583C33.2218 2.3023 33.6666 2.19054 34.1823 2.19054C34.6271 2.19054 35.0166 2.27132 35.3508 2.43288C35.685 2.59444 35.9494 2.82128 36.1442 3.11342C36.3389 3.40555 36.4463 3.74859 36.4662 4.14252H35.1317C35.0941 3.88801 34.9945 3.6833 34.8329 3.52838C34.6736 3.37125 34.4644 3.29268 34.2055 3.29268C33.9864 3.29268 33.795 3.35243 33.6312 3.47194C33.4696 3.58924 33.3435 3.76076 33.2527 3.9865C33.162 4.21224 33.1166 4.48556 33.1166 4.80646C33.1166 5.13179 33.1609 5.40843 33.2494 5.63639C33.3402 5.86434 33.4674 6.03807 33.6312 6.15758C33.795 6.27709 33.9864 6.33684 34.2055 6.33684C34.3671 6.33684 34.512 6.30364 34.6404 6.23725C34.7709 6.17086 34.8783 6.07459 34.9624 5.94844C35.0487 5.82008 35.1051 5.66626 35.1317 5.487H36.4662C36.4441 5.87651 36.3378 6.21954 36.1475 6.5161C35.9594 6.81045 35.6994 7.04062 35.3674 7.2066C35.0354 7.37259 34.6426 7.45558 34.1889 7.45558Z" fill="#263238"/>
<path d="M39.6954 7.45558C39.1709 7.45558 38.7194 7.34935 38.341 7.13689C37.9648 6.92221 37.6749 6.61902 37.4712 6.22729C37.2676 5.83335 37.1658 5.36749 37.1658 4.8297C37.1658 4.30519 37.2676 3.84486 37.4712 3.44871C37.6749 3.05256 37.9614 2.74382 38.331 2.52251C38.7028 2.3012 39.1388 2.19054 39.639 2.19054C39.9754 2.19054 40.2886 2.24476 40.5785 2.35321C40.8706 2.45944 41.1251 2.61989 41.342 2.83456C41.5611 3.04924 41.7315 3.31924 41.8532 3.64457C41.975 3.96768 42.0358 4.34613 42.0358 4.7799V5.16831H37.7302V4.29191H40.7046C40.7046 4.0883 40.6604 3.90793 40.5718 3.7508C40.4833 3.59367 40.3605 3.47084 40.2034 3.38231C40.0484 3.29157 39.8681 3.2462 39.6622 3.2462C39.4476 3.2462 39.2572 3.296 39.0913 3.39559C38.9275 3.49297 38.7991 3.62465 38.7062 3.79063C38.6132 3.95441 38.5656 4.13699 38.5634 4.33838V5.17163C38.5634 5.42392 38.6099 5.64192 38.7028 5.82561C38.798 6.0093 38.9319 6.15094 39.1045 6.25053C39.2772 6.35012 39.4819 6.39992 39.7187 6.39992C39.8758 6.39992 40.0197 6.37778 40.1502 6.33352C40.2808 6.28926 40.3926 6.22286 40.4855 6.13434C40.5785 6.04581 40.6493 5.93737 40.698 5.80901L42.0059 5.89532C41.9396 6.20959 41.8034 6.48401 41.5976 6.71861C41.394 6.95099 41.1307 7.13246 40.8075 7.26304C40.4866 7.3914 40.1159 7.45558 39.6954 7.45558Z" fill="#263238"/>
<path d="M44.3729 4.4081V7.35599H42.9587V2.25694H44.3065V3.15657H44.3662C44.4791 2.86001 44.6683 2.62542 44.9339 2.4528C45.1995 2.27796 45.5215 2.19054 45.8999 2.19054C46.254 2.19054 46.5628 2.268 46.8261 2.42292C47.0895 2.57784 47.2942 2.79915 47.4403 3.08686C47.5864 3.37235 47.6594 3.71318 47.6594 4.10933V7.35599H46.2452V4.36162C46.2474 4.04957 46.1677 3.80613 46.0062 3.63129C45.8446 3.45424 45.6222 3.36571 45.3389 3.36571C45.1486 3.36571 44.9804 3.40666 44.8343 3.48854C44.6905 3.57043 44.5776 3.68994 44.4957 3.84707C44.416 4.00199 44.3751 4.189 44.3729 4.4081Z" fill="#263238"/>
<path d="M51.4862 2.25694V3.31924H48.4154V2.25694H51.4862ZM49.1126 1.03529H50.5268V5.78909C50.5268 5.91967 50.5467 6.02147 50.5865 6.0945C50.6264 6.16532 50.6817 6.21512 50.7525 6.24389C50.8255 6.27266 50.9096 6.28705 51.0048 6.28705C51.0712 6.28705 51.1376 6.28151 51.204 6.27045C51.2704 6.25717 51.3213 6.24721 51.3567 6.24057L51.5791 7.29291C51.5083 7.31505 51.4087 7.3405 51.2803 7.36927C51.152 7.40025 50.996 7.41906 50.8123 7.4257C50.4714 7.43898 50.1727 7.39361 49.916 7.28959C49.6614 7.18558 49.4634 7.02402 49.3217 6.80492C49.1801 6.58582 49.1104 6.30918 49.1126 5.97499V1.03529Z" fill="#263238"/>
</svg>
